<?xml version="1.0" encoding="UTF-8" standalone="no"?>
<!-- Created with Inkscape (http://www.inkscape.org/) -->

<svg
   width="310"
   height="310"
   viewBox="0 0 82.020823 82.020831"
   version="1.1"
   id="svg1"
   xml:space="preserve"
   inkscape:version="1.3.2 (091e20ef0f, 2023-11-25)"
   sodipodi:docname="icon_white.svg"
   xmlns:inkscape="http://www.inkscape.org/namespaces/inkscape"
   xmlns:sodipodi="http://sodipodi.sourceforge.net/DTD/sodipodi-0.dtd"
   xmlns="http://www.w3.org/2000/svg"
   xmlns:svg="http://www.w3.org/2000/svg"><sodipodi:namedview
     id="namedview1"
     pagecolor="#505050"
     bordercolor="#ffffff"
     borderopacity="1"
     inkscape:showpageshadow="0"
     inkscape:pageopacity="0"
     inkscape:pagecheckerboard="1"
     inkscape:deskcolor="#505050"
     inkscape:document-units="mm"
     inkscape:export-bgcolor="#ffffff00"
     inkscape:zoom="1.9349327"
     inkscape:cx="105.94684"
     inkscape:cy="177.00874"
     inkscape:window-width="1920"
     inkscape:window-height="1011"
     inkscape:window-x="1080"
     inkscape:window-y="32"
     inkscape:window-maximized="1"
     inkscape:current-layer="layer2" /><defs
     id="defs1" /><g
     inkscape:groupmode="layer"
     id="layer2"
     inkscape:label="Layer 1"><path
       style="display:inline;fill:#ffffff;stroke-width:1.00525"
       d="M 34.742996,80.522962 C 2.508337,75.395417 -10.338472,35.812017 12.736168,12.715851 c 25.035203,-25.05856 68.233866,-7.2458961 68.262619,28.14761 0.0024,2.942784 0.09545,2.864882 -1.972974,1.651572 l -1.569602,-0.920706 v -1.537201 c 0,-34.3348201 -46.69837,-48.6144249 -66.231627,-20.252558 -21.423943,31.107097 12.309586,70.745998 45.849802,53.87624 7.520551,-3.78262 18.16283,-15.099563 17.123197,-18.20872 C 74.137733,55.29312 64.71757,49.731946 53.263871,43.113919 L 32.438964,31.081141 v 11.676657 c 0,6.42216 0.08941,11.676654 0.198675,11.676654 0.109271,0 3.557811,-1.94001 7.663422,-4.311134 l 7.464747,-4.311134 0.921426,0.32435 c 0.506783,0.178393 1.162349,0.753987 1.456812,1.279099 l 0.535386,0.954748 -0.732647,0.991952 c -0.789626,1.069097 -18.965101,11.813268 -19.984024,11.813268 -0.324731,0 -0.937244,-0.369523 -1.36114,-0.821164 L 27.830899,59.533274 V 42.853823 26.174369 l 0.851476,-0.800666 c 0.468313,-0.440368 1.173237,-0.747601 1.566499,-0.682742 0.629785,0.103868 46.751215,26.591248 48.373934,27.780985 l 0.634898,0.465491 -1.270512,3.177309 C 71.22963,73.014153 52.829126,83.399906 34.742996,80.522962 Z"
       id="path5"
       inkscape:label="Main_Path"
       sodipodi:nodetypes="sssscssssscssscsscssscccssscss" /><ellipse
       style="fill:#ffffff;stroke-width:0.265974"
       id="path6"
       cx="19.00901"
       cy="21.774586"
       inkscape:label="Left_Circle"
       rx="3.2893159"
       ry="3.2923846" /><ellipse
       style="fill:#ffffff;stroke-width:0.265974"
       id="circle6"
       cx="34.701866"
       cy="12.575412"
       inkscape:label="Right_Circle"
       rx="3.2893159"
       ry="3.2923846" /></g></svg>
